<svg width="480" height="150" viewBox="0 0 480 150" fill="none" xmlns="http://www.w3.org/2000/svg">
<path d="M93.7 75L84.25 84.45L92.28 92.48C93.06 93.26 93.06 94.53 92.28 95.32L57.3 130.3C56.52 131.08 55.25 131.08 54.46 130.3L19.48 95.32C18.7 94.54 18.7 93.27 19.48 92.48L54.46 57.5C55.24 56.72 56.51 56.72 57.3 57.5L63.92 64.12C64.7 64.9 65.97 64.9 66.76 64.12L73.38 57.5C74.16 56.72 74.16 55.45 73.38 54.66L57.31 38.59C56.53 37.81 55.26 37.81 54.47 38.59L0.590005 92.47C-0.189995 93.25 -0.189995 94.52 0.590005 95.31L54.47 149.19C55.25 149.97 56.52 149.97 57.31 149.19L111.19 95.31C111.97 94.53 111.97 93.26 111.19 92.47L93.7 75Z" fill="url(#paint0_linear_116_3)"/>
<path d="M54.47 0.80002L0.590005 54.68C-0.189995 55.46 -0.189995 56.73 0.590005 57.52L18.08 75L27.53 65.55L19.5 57.52C18.72 56.74 18.72 55.47 19.5 54.68L54.48 19.7C55.26 18.92 56.53 18.92 57.32 19.7L92.3 54.68C93.08 55.46 93.08 56.73 92.3 57.52L57.32 92.5C56.54 93.28 55.27 93.28 54.48 92.5L47.86 85.88C47.08 85.1 45.81 85.1 45.02 85.88L38.4 92.5C37.62 93.28 37.62 94.55 38.4 95.34L54.47 111.41C55.25 112.19 56.52 112.19 57.31 111.41L111.19 57.53C111.97 56.75 111.97 55.48 111.19 54.69L57.3 0.80002C56.52 0.0100195 55.25 0.0100195 54.47 0.80002Z" fill="url(#paint1_linear_116_3)"/>
<path d="M166 57.76C163.93 56.34 161.55 55.63 158.85 55.63C156.3 55.63 153.81 56.21 151.38 57.36C149.77 58.13 148.25 59.02 146.82 60.02L146.22 56.71H145.79C144.63 56.61 143.58 56.57 142.61 56.57C141.65 56.57 140.49 56.62 139.14 56.71V105.29H147.59V91.63C147.99 91.76 148.39 91.89 148.82 92.01C150.89 92.59 152.84 92.88 154.67 92.88C158.14 92.88 161.24 92.12 163.98 90.61C166.72 89.09 168.85 86.88 170.37 83.97C171.89 81.06 172.64 77.58 172.64 73.54C172.64 69.79 172.05 66.57 170.87 63.9C169.69 61.22 168.07 59.18 166 57.76ZM162.72 80.21C161.93 82.06 160.82 83.46 159.4 84.4C157.98 85.34 156.36 85.81 154.53 85.81C153.18 85.81 151.63 85.56 149.87 85.05C149.18 84.85 148.41 84.6 147.6 84.32V65.78C148.71 65.29 149.88 64.82 151.14 64.4C153.06 63.75 154.72 63.43 156.12 63.43C157.66 63.43 159.01 63.82 160.16 64.58C161.32 65.35 162.23 66.48 162.9 67.97C163.57 69.46 163.91 71.29 163.91 73.46C163.91 76.11 163.51 78.36 162.72 80.21Z" fill="#F2F2F2"/>
<path d="M200.84 57C198.99 56.23 196.66 55.85 193.87 55.85C191.8 55.85 189.47 56.13 186.87 56.68C184.27 57.23 181.5 58.06 178.57 59.17C179 61.48 179.56 63.72 180.23 65.88C182.59 65.06 184.89 64.42 187.12 63.97C189.36 63.51 191.25 63.28 192.79 63.28C194.33 63.28 195.53 63.6 196.4 64.25C197.27 64.9 197.83 65.74 198.1 66.78C198.36 67.82 198.52 69.08 198.57 70.57V70.79V71.73C194.43 71.59 190.85 71.51 187.81 71.51C184.78 71.51 181.96 71.63 179.36 71.87C178.49 73.41 177.82 75.01 177.34 76.67C176.86 78.33 176.62 80.08 176.62 81.9C176.62 85.51 177.53 88.24 179.36 90.09C181.19 91.94 183.64 92.87 186.72 92.87C188.69 92.87 190.81 92.36 193.07 91.35C195.33 90.34 197.33 89.06 199.06 87.52L199.93 91.85C201.05 91.85 205.5 91.85 206.72 91.85C206.72 89.54 206.72 87.25 206.72 84.99V68.82C206.72 65.5 206.2 62.89 205.17 60.99C204.14 59.11 202.7 57.77 200.84 57ZM198.57 82.41C197.03 83.42 195.45 84.24 193.84 84.87C192.23 85.5 190.7 85.81 189.26 85.81C187.67 85.81 186.48 85.43 185.69 84.66C184.9 83.89 184.5 82.76 184.5 81.27C184.5 80.5 184.55 79.75 184.64 79.03C184.74 78.31 184.9 77.66 185.15 77.08C188.47 76.89 192.95 76.94 198.58 77.22V82.41H198.57Z" fill="#F2F2F2"/>
<path d="M253.42 55.63C251.25 55.63 248.9 56.28 246.35 57.58C244.59 58.47 242.88 59.58 241.22 60.89C240.85 59.74 240.34 58.8 239.68 58.09C238.16 56.45 236.03 55.64 233.29 55.64C231.22 55.64 228.9 56.25 226.32 57.48C224.52 58.34 222.72 59.44 220.92 60.77L220.15 56.65C217.45 56.51 215.14 56.55 213.22 56.79V91.87H221.59V66.91C222.61 66.28 223.66 65.73 224.77 65.27C226.45 64.57 227.97 64.22 229.32 64.22C230.33 64.22 231.14 64.39 231.74 64.73C232.34 65.07 232.79 65.66 233.08 66.5C233.37 67.34 233.51 68.51 233.51 70V91.87H241.96V66.89C242.93 66.3 243.93 65.76 244.96 65.3C246.57 64.58 248.07 64.22 249.47 64.22C250.38 64.22 251.15 64.39 251.78 64.73C252.41 65.07 252.91 65.7 253.3 66.64C253.68 67.58 253.88 68.94 253.88 70.72V91.87H262.25V66.24C262.25 62.44 261.47 59.72 259.9 58.08C258.32 56.45 256.17 55.63 253.42 55.63Z" fill="#F2F2F2"/>
<path d="M295.55 57.76C293.48 56.34 291.1 55.63 288.4 55.63C285.85 55.63 283.36 56.21 280.93 57.36C279.32 58.13 277.8 59.02 276.37 60.02L275.77 56.71H275.34C274.18 56.61 273.13 56.57 272.16 56.57C271.2 56.57 270.04 56.62 268.69 56.71V105.29H277.14V91.63C277.54 91.76 277.94 91.89 278.37 92.01C280.44 92.59 282.39 92.88 284.22 92.88C287.69 92.88 290.79 92.12 293.53 90.61C296.27 89.09 298.4 86.88 299.92 83.97C301.44 81.06 302.19 77.58 302.19 73.54C302.19 69.79 301.6 66.57 300.42 63.9C299.25 61.22 297.62 59.18 295.55 57.76ZM292.27 80.21C291.48 82.06 290.37 83.46 288.95 84.4C287.53 85.34 285.91 85.81 284.08 85.81C282.73 85.81 281.18 85.56 279.42 85.05C278.73 84.85 277.96 84.6 277.15 84.32V65.78C278.26 65.29 279.43 64.82 280.69 64.4C282.61 63.75 284.27 63.43 285.67 63.43C287.21 63.43 288.56 63.82 289.71 64.58C290.87 65.35 291.78 66.48 292.45 67.97C293.12 69.46 293.46 71.29 293.46 73.46C293.46 76.11 293.06 78.36 292.27 80.21Z" fill="#F2F2F2"/>
<path d="M330.4 57C328.55 56.23 326.22 55.85 323.43 55.85C321.36 55.85 319.03 56.13 316.43 56.68C313.83 57.23 311.06 58.06 308.13 59.17C308.56 61.48 309.12 63.72 309.79 65.88C312.15 65.06 314.45 64.42 316.68 63.97C318.92 63.51 320.81 63.28 322.35 63.28C323.89 63.28 325.09 63.6 325.96 64.25C326.83 64.9 327.39 65.74 327.66 66.78C327.92 67.82 328.08 69.08 328.13 70.57V70.79V71.73C323.99 71.59 320.41 71.51 317.37 71.51C314.33 71.51 311.52 71.63 308.92 71.87C308.05 73.41 307.38 75.01 306.9 76.67C306.42 78.33 306.18 80.08 306.18 81.9C306.18 85.51 307.09 88.24 308.92 90.09C310.75 91.94 313.2 92.87 316.28 92.87C318.25 92.87 320.37 92.36 322.63 91.35C324.89 90.34 326.89 89.06 328.62 87.52L329.49 91.85C330.66 91.85 335.17 91.85 336.28 91.85C336.28 89.54 336.28 87.25 336.28 84.99V68.82C336.28 65.5 335.76 62.89 334.73 60.99C333.69 59.11 332.25 57.77 330.4 57ZM328.12 82.41C326.58 83.42 325 84.24 323.39 84.87C321.78 85.5 320.25 85.81 318.81 85.81C317.22 85.81 316.03 85.43 315.24 84.66C314.45 83.89 314.05 82.76 314.05 81.27C314.05 80.5 314.1 79.75 314.19 79.03C314.29 78.31 314.45 77.66 314.7 77.08C318.02 76.89 322.5 76.94 328.13 77.22V82.41H328.12Z" fill="#F2F2F2"/>
<path d="M369.47 85.44C368.22 85.97 366.59 86.49 364.6 86.99C362.6 87.5 360.88 87.75 359.44 87.75C357.03 87.75 354.93 87.23 353.12 86.2C351.32 85.17 349.91 83.65 348.9 81.65C347.89 79.65 347.38 77.28 347.38 74.54C347.38 71.85 347.87 69.54 348.86 67.61C349.85 65.69 351.23 64.22 353.01 63.21C354.79 62.2 356.84 61.69 359.15 61.69C360.21 61.69 361.34 61.81 362.54 62.05C363.74 62.29 364.97 62.63 366.22 63.06C366.85 63.25 367.86 63.61 369.25 64.14C369.59 62.6 369.85 61.01 370.04 59.38C368.07 58.42 366.15 57.71 364.3 57.25C362.45 56.79 360.68 56.56 358.99 56.56C355.53 56.56 352.49 57.28 349.89 58.73C347.29 60.17 345.28 62.26 343.86 64.97C342.44 67.69 341.73 70.9 341.73 74.61C341.73 78.32 342.43 81.55 343.82 84.32C345.21 87.09 347.2 89.21 349.78 90.67C352.35 92.14 355.28 92.87 358.55 92.87C360.38 92.87 362.28 92.65 364.25 92.22C366.22 91.79 368.22 91.09 370.24 90.13C370.19 89.7 370.12 89.29 370.02 88.9C369.91 87.42 369.71 86.26 369.47 85.44Z" fill="#F2F2F2"/>
<path d="M398.2 58.77C395.7 57.3 392.74 56.57 389.32 56.57C385.9 56.57 382.95 57.3 380.48 58.77C378 60.24 376.1 62.33 374.78 65.05C373.46 67.77 372.79 70.98 372.79 74.69C372.79 78.4 373.45 81.62 374.78 84.36C376.1 87.1 378 89.21 380.48 90.68C382.96 92.15 385.91 92.88 389.32 92.88C392.74 92.88 395.7 92.15 398.2 90.68C400.7 89.21 402.61 87.11 403.94 84.36C405.26 81.62 405.93 78.39 405.93 74.69C405.93 70.98 405.27 67.77 403.94 65.05C402.62 62.33 400.71 60.24 398.2 58.77ZM398.96 81.98C398.12 83.95 396.88 85.46 395.24 86.49C393.6 87.53 391.61 88.04 389.25 88.04C386.99 88.04 385.05 87.52 383.44 86.49C381.83 85.46 380.6 83.95 379.76 81.98C378.92 80.01 378.5 77.58 378.5 74.69C378.5 71.8 378.92 69.37 379.76 67.4C380.6 65.43 381.83 63.94 383.44 62.92C385.05 61.91 386.99 61.4 389.25 61.4C391.61 61.4 393.6 61.91 395.24 62.92C396.88 63.93 398.11 65.42 398.96 67.4C399.8 69.37 400.22 71.8 400.22 74.69C400.22 77.58 399.8 80.01 398.96 81.98Z" fill="#F2F2F2"/>
<path d="M436.7 43.21V58.44C435.58 58.06 434.39 57.7 433.13 57.39C430.89 56.84 428.76 56.56 426.74 56.56C423.61 56.56 420.83 57.31 418.4 58.8C415.97 60.29 414.08 62.43 412.73 65.23C411.38 68.02 410.71 71.29 410.71 75.05C410.71 78.95 411.31 82.22 412.51 84.87C413.71 87.52 415.41 89.51 417.6 90.86C419.79 92.21 422.35 92.88 425.29 92.88C427.17 92.88 429.33 92.41 431.79 91.47C433.76 90.72 435.54 89.74 437.14 88.57L437.64 91.87C438.26 91.97 439 92.01 439.84 92.01C440.68 92.01 441.49 91.96 442.26 91.87C442.26 90.23 442.26 88.6 442.26 86.96V43.21C441.15 43.21 438.05 43.21 436.7 43.21ZM431.47 86.56C429.52 87.31 427.78 87.68 426.24 87.68C423.26 87.68 420.87 86.6 419.09 84.43C417.31 82.26 416.42 79.33 416.42 75.62C416.42 72.54 416.88 69.95 417.79 67.86C418.7 65.77 420.05 64.17 421.83 63.06C423.61 61.95 425.75 61.4 428.26 61.4C429.75 61.4 431.54 61.68 433.64 62.23C434.76 62.53 435.78 62.85 436.71 63.19V84.02C435.05 85.01 433.31 85.86 431.47 86.56Z" fill="#F2F2F2"/>
<path d="M479.78 76.49C479.92 75.62 480 74.66 480 73.6C480 70.28 479.4 67.33 478.2 64.76C477 62.19 475.25 60.18 472.97 58.73C470.68 57.29 468 56.56 464.92 56.56C461.89 56.56 459.13 57.32 456.65 58.83C454.17 60.35 452.23 62.48 450.84 65.22C449.44 67.96 448.75 71.12 448.75 74.68C448.75 78.39 449.42 81.6 450.77 84.32C452.12 87.04 454.08 89.15 456.65 90.64C459.22 92.13 462.27 92.88 465.78 92.88C468.14 92.88 470.39 92.61 472.53 92.09C474.67 91.56 476.63 90.89 478.41 90.07C478.22 89.25 477.88 87.66 477.4 85.31C475.81 86.08 474.01 86.68 471.99 87.11C469.97 87.54 468.02 87.76 466.14 87.76C462.68 87.76 459.92 86.73 457.87 84.66C455.82 82.59 454.66 79.87 454.37 76.5C459.95 76.5 464.14 76.5 466.93 76.5C469.72 76.49 474.01 76.49 479.78 76.49ZM456.25 66.53C457.21 64.99 458.43 63.79 459.9 62.92C461.37 62.05 462.99 61.62 464.77 61.62C466.79 61.62 468.51 62.03 469.93 62.85C471.35 63.67 472.47 64.82 473.29 66.31C474.11 67.8 474.61 69.63 474.81 71.8C468.02 71.8 461.21 71.8 454.38 71.8C454.66 69.83 455.29 68.07 456.25 66.53Z" fill="#F2F2F2"/>
<defs>
<linearGradient id="paint0_linear_116_3" x1="55.8863" y1="149.792" x2="55.8863" y2="38.0193" gradientUnits="userSpaceOnUse">
<stop stop-color="#2B00FF"/>
<stop offset="1" stop-color="#00FFFF"/>
</linearGradient>
<linearGradient id="paint1_linear_116_3" x1="55.8863" y1="111.981" x2="55.8863" y2="0.208026" gradientUnits="userSpaceOnUse">
<stop stop-color="#B800FF"/>
<stop offset="1" stop-color="#FF8800"/>
</linearGradient>
</defs>
</svg>
